{
	"asset":{
		"generator":"Khronos glTF Blender I/O v3.5.30",
		"version":"2.0"
	},
	"scene":0,
	"scenes":[
		{
			"name":"Scene",
			"nodes":[
				0
			]
		}
	],
	"nodes":[
		{
			"mesh":0,
			"name":"Text.001",
			"rotation":[
				0.7034775614738464,
				0.1801692247390747,
				-0.17733682692050934,
				0.6642364859580994
			],
			"scale":[
				0.771629810333252,
				0.771630048751831,
				0.7716299295425415
			],
			"translation":[
				-110.56045532226562,
				43.00437927246094,
				-84.52085876464844
			]
		}
	],
	"animations":[
		{
			"channels":[
				{
					"sampler":0,
					"target":{
						"node":0,
						"path":"translation"
					}
				},
				{
					"sampler":1,
					"target":{
						"node":0,
						"path":"rotation"
					}
				}
			],
			"name":"Text.001Action.002",
			"samplers":[
				{
					"input":4,
					"interpolation":"LINEAR",
					"output":5
				},
				{
					"input":4,
					"interpolation":"LINEAR",
					"output":6
				}
			]
		}
	],
	"meshes":[
		{
			"name":"Tilman Goldboom.001",
			"primitives":[
				{
					"attributes":{
						"POSITION":0,
						"TEXCOORD_0":1,
						"NORMAL":2
					},
					"indices":3
				}
			]
		}
	],
	"accessors":[
		{
			"bufferView":0,
			"componentType":5126,
			"count":5517,
			"max":[
				31.61790657043457,
				0.4599999785423279,
				3.962052583694458
			],
			"min":[
				-31.617902755737305,
				-0.4599999785423279,
				-3.9620521068573
			],
			"type":"VEC3"
		},
		{
			"bufferView":1,
			"componentType":5126,
			"count":5517,
			"type":"VEC2"
		},
		{
			"bufferView":2,
			"componentType":5126,
			"count":5517,
			"type":"VEC3"
		},
		{
			"bufferView":3,
			"componentType":5123,
			"count":16248,
			"type":"SCALAR"
		},
		{
			"bufferView":4,
			"componentType":5126,
			"count":123,
			"max":[
				5.083333333333333
			],
			"min":[
				0
			],
			"type":"SCALAR"
		},
		{
			"bufferView":5,
			"componentType":5126,
			"count":123,
			"type":"VEC3"
		},
		{
			"bufferView":6,
			"componentType":5126,
			"count":123,
			"type":"VEC4"
		}
	],
	"bufferViews":[
		{
			"buffer":0,
			"byteLength":66204,
			"byteOffset":0,
			"target":34962
		},
		{
			"buffer":0,
			"byteLength":44136,
			"byteOffset":66204,
			"target":34962
		},
		{
			"buffer":0,
			"byteLength":66204,
			"byteOffset":110340,
			"target":34962
		},
		{
			"buffer":0,
			"byteLength":32496,
			"byteOffset":176544,
			"target":34963
		},
		{
			"buffer":0,
			"byteLength":492,
			"byteOffset":209040
		},
		{
			"buffer":0,
			"byteLength":1476,
			"byteOffset":209532
		},
		{
			"buffer":0,
			"byteLength":1968,
			"byteOffset":211008
		}
	],
	"buffers":[
		{
			"byteLength":212976,
			"uri":"scene.bin"
		}
	]
}
