{
	"asset":{
		"generator":"Khronos glTF Blender I/O v3.5.30",
		"version":"2.0"
	},
	"scene":0,
	"scenes":[
		{
			"name":"Scene",
			"nodes":[
				0,
				2,
				3,
				5,
				6,
				7
			]
		}
	],
	"nodes":[
		{
			"name":"BezierCircle",
			"rotation":[
				0,
				0,
				-0.7071068286895752,
				0.7071068286895752
			],
			"scale":[
				0.4641212821006775,
				1.403220772743225,
				1.403220772743225
			],
			"translation":[
				0.9175518155097961,
				0.7488364577293396,
				0
			]
		},
		{
			"mesh":0,
			"name":"Cube.002",
			"rotation":[
				0,
				0,
				1,
				1.6292068494294654e-07
			],
			"scale":[
				-0.7624014616012573,
				-0.11927683651447296,
				-0.2695806622505188
			],
			"translation":[
				-0.28487443923950195,
				-0.017914272844791412,
				-0.37236475944519043
			]
		},
		{
			"children":[
				1
			],
			"mesh":1,
			"name":"Plane",
			"scale":[
				-0.1868751049041748,
				-0.1868751049041748,
				-0.0826834961771965
			],
			"translation":[
				0.8600627183914185,
				0.007683886215090752,
				-0.07893471419811249
			]
		},
		{
			"mesh":2,
			"name":"Plane.001",
			"scale":[
				0.06904280185699463,
				0.06904280185699463,
				0.06904280185699463
			],
			"translation":[
				0.9283826351165771,
				0.01056981086730957,
				0.0026402994990348816
			]
		},
		{
			"mesh":3,
			"name":"Cube",
			"rotation":[
				0,
				0,
				0.7071068286895752,
				0.7071068286895752
			],
			"scale":[
				1,
				1.5185729265213013,
				1
			],
			"translation":[
				0.10815631598234177,
				-0.9377948641777039,
				-0.05374612659215927
			]
		},
		{
			"children":[
				4
			],
			"name":"BezierCircle.001",
			"rotation":[
				0,
				0,
				-0.7071068286895752,
				0.7071068286895752
			],
			"scale":[
				0.6585130095481873,
				1,
				1
			],
			"translation":[
				0.9377949237823486,
				0.07122241705656052,
				0.05374612659215927
			]
		},
		{
			"mesh":4,
			"name":"Cube.003",
			"scale":[
				0.06528395414352417,
				0.06528395414352417,
				0.06528395414352417
			],
			"translation":[
				0.8646289706230164,
				0.07032690942287445,
				5.796529769897461
			]
		},
		{
			"mesh":5,
			"name":"Cube.004",
			"scale":[
				0.06528395414352417,
				0.06528395414352417,
				0.06528395414352417
			],
			"translation":[
				2.874387502670288,
				0.07032690942287445,
				5.796529769897461
			]
		}
	],
	"animations":[
		{
			"channels":[
				{
					"sampler":0,
					"target":{
						"node":5,
						"path":"translation"
					}
				}
			],
			"name":"BezierCircle.001Action.001",
			"samplers":[
				{
					"input":23,
					"interpolation":"LINEAR",
					"output":24
				}
			]
		},
		{
			"channels":[
				{
					"sampler":0,
					"target":{
						"node":4,
						"path":"translation"
					}
				}
			],
			"name":"CubeAction",
			"samplers":[
				{
					"input":25,
					"interpolation":"STEP",
					"output":26
				}
			]
		}
	],
	"meshes":[
		{
			"name":"Cube.004",
			"primitives":[
				{
					"attributes":{
						"POSITION":0,
						"TEXCOORD_0":1,
						"NORMAL":2
					},
					"indices":3
				}
			]
		},
		{
			"name":"Plane",
			"primitives":[
				{
					"attributes":{
						"POSITION":4,
						"TEXCOORD_0":5,
						"NORMAL":6
					},
					"indices":7
				}
			]
		},
		{
			"name":"Plane.002",
			"primitives":[
				{
					"attributes":{
						"POSITION":8,
						"TEXCOORD_0":9,
						"NORMAL":10
					},
					"indices":7
				}
			]
		},
		{
			"name":"Cube.001",
			"primitives":[
				{
					"attributes":{
						"POSITION":11,
						"TEXCOORD_0":12,
						"NORMAL":13
					},
					"indices":14
				}
			]
		},
		{
			"name":"Cube.002",
			"primitives":[
				{
					"attributes":{
						"POSITION":15,
						"TEXCOORD_0":16,
						"NORMAL":17
					},
					"indices":18
				}
			]
		},
		{
			"name":"Cube.003",
			"primitives":[
				{
					"attributes":{
						"POSITION":19,
						"TEXCOORD_0":20,
						"NORMAL":21
					},
					"indices":22
				}
			]
		}
	],
	"accessors":[
		{
			"bufferView":0,
			"componentType":5126,
			"count":330,
			"max":[
				1.3351222276687622,
				0.6901431083679199,
				2.1499557495117188
			],
			"min":[
				-1.367437481880188,
				-1.190544605255127,
				-3.8301234245300293
			],
			"type":"VEC3"
		},
		{
			"bufferView":1,
			"componentType":5126,
			"count":330,
			"type":"VEC2"
		},
		{
			"bufferView":2,
			"componentType":5126,
			"count":330,
			"type":"VEC3"
		},
		{
			"bufferView":3,
			"componentType":5123,
			"count":552,
			"type":"SCALAR"
		},
		{
			"bufferView":4,
			"componentType":5126,
			"count":4,
			"max":[
				0.7036213874816895,
				0,
				1
			],
			"min":[
				-1.2963786125183105,
				0,
				-1
			],
			"type":"VEC3"
		},
		{
			"bufferView":5,
			"componentType":5126,
			"count":4,
			"type":"VEC2"
		},
		{
			"bufferView":6,
			"componentType":5126,
			"count":4,
			"type":"VEC3"
		},
		{
			"bufferView":7,
			"componentType":5123,
			"count":6,
			"type":"SCALAR"
		},
		{
			"bufferView":8,
			"componentType":5126,
			"count":4,
			"max":[
				1,
				0,
				1
			],
			"min":[
				-1,
				0,
				-1
			],
			"type":"VEC3"
		},
		{
			"bufferView":9,
			"componentType":5126,
			"count":4,
			"type":"VEC2"
		},
		{
			"bufferView":10,
			"componentType":5126,
			"count":4,
			"type":"VEC3"
		},
		{
			"bufferView":11,
			"componentType":5126,
			"count":17190,
			"max":[
				1.4349327087402344,
				2.7151122093200684,
				0.9807338714599609
			],
			"min":[
				-1.4349327087402344,
				0.08701074123382568,
				-0.7249529361724854
			],
			"type":"VEC3"
		},
		{
			"bufferView":12,
			"componentType":5126,
			"count":17190,
			"type":"VEC2"
		},
		{
			"bufferView":13,
			"componentType":5126,
			"count":17190,
			"type":"VEC3"
		},
		{
			"bufferView":14,
			"componentType":5123,
			"count":27888,
			"type":"SCALAR"
		},
		{
			"bufferView":15,
			"componentType":5126,
			"count":11083,
			"max":[
				7.053687572479248,
				20.60988998413086,
				-70.65200805664062
			],
			"min":[
				-2.587214708328247,
				-1.0524896383285522,
				-101.77574157714844
			],
			"type":"VEC3"
		},
		{
			"bufferView":16,
			"componentType":5126,
			"count":11083,
			"type":"VEC2"
		},
		{
			"bufferView":17,
			"componentType":5126,
			"count":11083,
			"type":"VEC3"
		},
		{
			"bufferView":18,
			"componentType":5123,
			"count":17304,
			"type":"SCALAR"
		},
		{
			"bufferView":19,
			"componentType":5126,
			"count":11034,
			"max":[
				-54.51432418823242,
				20.68684959411621,
				-70.64576721191406
			],
			"min":[
				-64.15455627441406,
				-1.0172861814498901,
				-101.91035461425781
			],
			"type":"VEC3"
		},
		{
			"bufferView":20,
			"componentType":5126,
			"count":11034,
			"type":"VEC2"
		},
		{
			"bufferView":21,
			"componentType":5126,
			"count":11034,
			"type":"VEC3"
		},
		{
			"bufferView":22,
			"componentType":5123,
			"count":17304,
			"type":"SCALAR"
		},
		{
			"bufferView":23,
			"componentType":5126,
			"count":57,
			"max":[
				2.375
			],
			"min":[
				0.041666666666666664
			],
			"type":"SCALAR"
		},
		{
			"bufferView":24,
			"componentType":5126,
			"count":57,
			"type":"VEC3"
		},
		{
			"bufferView":25,
			"componentType":5126,
			"count":1,
			"max":[
				0.041666666666666664
			],
			"min":[
				0.041666666666666664
			],
			"type":"SCALAR"
		},
		{
			"bufferView":26,
			"componentType":5126,
			"count":1,
			"type":"VEC3"
		}
	],
	"bufferViews":[
		{
			"buffer":0,
			"byteLength":3960,
			"byteOffset":0,
			"target":34962
		},
		{
			"buffer":0,
			"byteLength":2640,
			"byteOffset":3960,
			"target":34962
		},
		{
			"buffer":0,
			"byteLength":3960,
			"byteOffset":6600,
			"target":34962
		},
		{
			"buffer":0,
			"byteLength":1104,
			"byteOffset":10560,
			"target":34963
		},
		{
			"buffer":0,
			"byteLength":48,
			"byteOffset":11664,
			"target":34962
		},
		{
			"buffer":0,
			"byteLength":32,
			"byteOffset":11712,
			"target":34962
		},
		{
			"buffer":0,
			"byteLength":48,
			"byteOffset":11744,
			"target":34962
		},
		{
			"buffer":0,
			"byteLength":12,
			"byteOffset":11792,
			"target":34963
		},
		{
			"buffer":0,
			"byteLength":48,
			"byteOffset":11804,
			"target":34962
		},
		{
			"buffer":0,
			"byteLength":32,
			"byteOffset":11852,
			"target":34962
		},
		{
			"buffer":0,
			"byteLength":48,
			"byteOffset":11884,
			"target":34962
		},
		{
			"buffer":0,
			"byteLength":206280,
			"byteOffset":11932,
			"target":34962
		},
		{
			"buffer":0,
			"byteLength":137520,
			"byteOffset":218212,
			"target":34962
		},
		{
			"buffer":0,
			"byteLength":206280,
			"byteOffset":355732,
			"target":34962
		},
		{
			"buffer":0,
			"byteLength":55776,
			"byteOffset":562012,
			"target":34963
		},
		{
			"buffer":0,
			"byteLength":132996,
			"byteOffset":617788,
			"target":34962
		},
		{
			"buffer":0,
			"byteLength":88664,
			"byteOffset":750784,
			"target":34962
		},
		{
			"buffer":0,
			"byteLength":132996,
			"byteOffset":839448,
			"target":34962
		},
		{
			"buffer":0,
			"byteLength":34608,
			"byteOffset":972444,
			"target":34963
		},
		{
			"buffer":0,
			"byteLength":132408,
			"byteOffset":1007052,
			"target":34962
		},
		{
			"buffer":0,
			"byteLength":88272,
			"byteOffset":1139460,
			"target":34962
		},
		{
			"buffer":0,
			"byteLength":132408,
			"byteOffset":1227732,
			"target":34962
		},
		{
			"buffer":0,
			"byteLength":34608,
			"byteOffset":1360140,
			"target":34963
		},
		{
			"buffer":0,
			"byteLength":228,
			"byteOffset":1394748
		},
		{
			"buffer":0,
			"byteLength":684,
			"byteOffset":1394976
		},
		{
			"buffer":0,
			"byteLength":4,
			"byteOffset":1395660
		},
		{
			"buffer":0,
			"byteLength":12,
			"byteOffset":1395664
		}
	],
	"buffers":[
		{
			"byteLength":1395676,
			"uri":"untitled.bin"
		}
	]
}
