{
	"asset":{
		"generator":"Khronos glTF Blender I/O v3.5.30",
		"version":"2.0"
	},
	"scene":0,
	"scenes":[
		{
			"name":"Scene",
			"nodes":[
				0
			]
		}
	],
	"nodes":[
		{
			"mesh":0,
			"name":"Cylinder.003",
			"rotation":[
				0.7086982131004333,
				0.00050115876365453,
				0.0004989051958546042,
				0.7055113911628723
			],
			"scale":[
				11.367610931396484,
				9.764386177062988,
				11.36761474609375
			]
		}
	],
	"animations":[
		{
			"channels":[
				{
					"sampler":0,
					"target":{
						"node":0,
						"path":"rotation"
					}
				},
				{
					"sampler":1,
					"target":{
						"node":0,
						"path":"translation"
					}
				}
			],
			"name":"Cylinder.003Action.001",
			"samplers":[
				{
					"input":4,
					"interpolation":"LINEAR",
					"output":5
				},
				{
					"input":4,
					"interpolation":"LINEAR",
					"output":6
				}
			]
		}
	],
	"meshes":[
		{
			"name":"Cylinder.003",
			"primitives":[
				{
					"attributes":{
						"POSITION":0,
						"TEXCOORD_0":1,
						"NORMAL":2
					},
					"indices":3
				}
			]
		}
	],
	"accessors":[
		{
			"bufferView":0,
			"componentType":5126,
			"count":236,
			"max":[
				2.4993438720703125,
				1.067778468132019,
				0.012121856212615967
			],
			"min":[
				-3.3255906105041504,
				-1.4488645792007446,
				-3.4534645080566406
			],
			"type":"VEC3"
		},
		{
			"bufferView":1,
			"componentType":5126,
			"count":236,
			"type":"VEC2"
		},
		{
			"bufferView":2,
			"componentType":5126,
			"count":236,
			"type":"VEC3"
		},
		{
			"bufferView":3,
			"componentType":5123,
			"count":354,
			"type":"SCALAR"
		},
		{
			"bufferView":4,
			"componentType":5126,
			"count":250,
			"max":[
				10.375
			],
			"min":[
				0
			],
			"type":"SCALAR"
		},
		{
			"bufferView":5,
			"componentType":5126,
			"count":250,
			"type":"VEC4"
		},
		{
			"bufferView":6,
			"componentType":5126,
			"count":250,
			"type":"VEC3"
		}
	],
	"bufferViews":[
		{
			"buffer":0,
			"byteLength":2832,
			"byteOffset":0,
			"target":34962
		},
		{
			"buffer":0,
			"byteLength":1888,
			"byteOffset":2832,
			"target":34962
		},
		{
			"buffer":0,
			"byteLength":2832,
			"byteOffset":4720,
			"target":34962
		},
		{
			"buffer":0,
			"byteLength":708,
			"byteOffset":7552,
			"target":34963
		},
		{
			"buffer":0,
			"byteLength":1000,
			"byteOffset":8260
		},
		{
			"buffer":0,
			"byteLength":4000,
			"byteOffset":9260
		},
		{
			"buffer":0,
			"byteLength":3000,
			"byteOffset":13260
		}
	],
	"buffers":[
		{
			"byteLength":16260,
			"uri":"scene.bin"
		}
	]
}
