{
	"asset":{
		"generator":"Khronos glTF Blender I/O v3.5.30",
		"version":"2.0"
	},
	"scene":0,
	"scenes":[
		{
			"name":"Scene",
			"nodes":[
				0
			]
		}
	],
	"nodes":[
		{
			"mesh":0,
			"name":"robot3",
			"rotation":[
				-0.09599602967500687,
				0.8811447620391846,
				0.00251345825381577,
				0.46299290657043457
			],
			"scale":[
				2.9943437576293945,
				2.9943442344665527,
				2.9943442344665527
			],
			"translation":[
				-55.2569580078125,
				-4.363327980041504,
				-16.7103214263916
			]
		}
	],
	"animations":[
		{
			"channels":[
				{
					"sampler":0,
					"target":{
						"node":0,
						"path":"rotation"
					}
				}
			],
			"name":"robot3Action.001",
			"samplers":[
				{
					"input":4,
					"interpolation":"LINEAR",
					"output":5
				}
			]
		}
	],
	"meshes":[
		{
			"name":"Cylinder.005",
			"primitives":[
				{
					"attributes":{
						"POSITION":0,
						"TEXCOORD_0":1,
						"NORMAL":2
					},
					"indices":3
				}
			]
		}
	],
	"accessors":[
		{
			"bufferView":0,
			"componentType":5126,
			"count":1322,
			"max":[
				0.7828219532966614,
				1.8210197687149048,
				0.7912517189979553
			],
			"min":[
				-1.0583455562591553,
				1.0660929679870605,
				-0.7599273920059204
			],
			"type":"VEC3"
		},
		{
			"bufferView":1,
			"componentType":5126,
			"count":1322,
			"type":"VEC2"
		},
		{
			"bufferView":2,
			"componentType":5126,
			"count":1322,
			"type":"VEC3"
		},
		{
			"bufferView":3,
			"componentType":5123,
			"count":2136,
			"type":"SCALAR"
		},
		{
			"bufferView":4,
			"componentType":5126,
			"count":245,
			"max":[
				10.166666666666666
			],
			"min":[
				0
			],
			"type":"SCALAR"
		},
		{
			"bufferView":5,
			"componentType":5126,
			"count":245,
			"type":"VEC4"
		}
	],
	"bufferViews":[
		{
			"buffer":0,
			"byteLength":15864,
			"byteOffset":0,
			"target":34962
		},
		{
			"buffer":0,
			"byteLength":10576,
			"byteOffset":15864,
			"target":34962
		},
		{
			"buffer":0,
			"byteLength":15864,
			"byteOffset":26440,
			"target":34962
		},
		{
			"buffer":0,
			"byteLength":4272,
			"byteOffset":42304,
			"target":34963
		},
		{
			"buffer":0,
			"byteLength":980,
			"byteOffset":46576
		},
		{
			"buffer":0,
			"byteLength":3920,
			"byteOffset":47556
		}
	],
	"buffers":[
		{
			"byteLength":51476,
			"uri":"scene.bin"
		}
	]
}
