{
	"asset":{
		"generator":"Khronos glTF Blender I/O v3.5.30",
		"version":"2.0"
	},
	"scene":0,
	"scenes":[
		{
			"name":"Scene",
			"nodes":[
				0
			]
		}
	],
	"nodes":[
		{
			"mesh":0,
			"name":"Cylinder",
			"rotation":[
				0.057229626923799515,
				0.006026056595146656,
				0.10454364120960236,
				0.992854118347168
			],
			"scale":[
				14.026468276977539,
				14.026467323303223,
				14.02646541595459
			],
			"translation":[
				0.042953528463840485,
				1.45419180393219,
				-0.048741403967142105
			]
		}
	],
	"animations":[
		{
			"channels":[
				{
					"sampler":0,
					"target":{
						"node":0,
						"path":"rotation"
					}
				}
			],
			"name":"CylinderAction.002",
			"samplers":[
				{
					"input":4,
					"interpolation":"LINEAR",
					"output":5
				}
			]
		}
	],
	"meshes":[
		{
			"name":"Cylinder",
			"primitives":[
				{
					"attributes":{
						"POSITION":0,
						"TEXCOORD_0":1,
						"NORMAL":2
					},
					"indices":3
				}
			]
		}
	],
	"accessors":[
		{
			"bufferView":0,
			"componentType":5126,
			"count":1988,
			"max":[
				1.4590495824813843,
				2.3963193893432617,
				1.4590498208999634
			],
			"min":[
				-1.4590500593185425,
				-1.2972301244735718,
				-1.4590498208999634
			],
			"type":"VEC3"
		},
		{
			"bufferView":1,
			"componentType":5126,
			"count":1988,
			"type":"VEC2"
		},
		{
			"bufferView":2,
			"componentType":5126,
			"count":1988,
			"type":"VEC3"
		},
		{
			"bufferView":3,
			"componentType":5123,
			"count":3444,
			"type":"SCALAR"
		},
		{
			"bufferView":4,
			"componentType":5126,
			"count":141,
			"max":[
				5.833333333333333
			],
			"min":[
				0
			],
			"type":"SCALAR"
		},
		{
			"bufferView":5,
			"componentType":5126,
			"count":141,
			"type":"VEC4"
		}
	],
	"bufferViews":[
		{
			"buffer":0,
			"byteLength":23856,
			"byteOffset":0,
			"target":34962
		},
		{
			"buffer":0,
			"byteLength":15904,
			"byteOffset":23856,
			"target":34962
		},
		{
			"buffer":0,
			"byteLength":23856,
			"byteOffset":39760,
			"target":34962
		},
		{
			"buffer":0,
			"byteLength":6888,
			"byteOffset":63616,
			"target":34963
		},
		{
			"buffer":0,
			"byteLength":564,
			"byteOffset":70504
		},
		{
			"buffer":0,
			"byteLength":2256,
			"byteOffset":71068
		}
	],
	"buffers":[
		{
			"byteLength":73324,
			"uri":"scene.bin"
		}
	]
}
