{
    "asset" : {
        "generator" : "Khronos glTF Blender I/O v3.4.50",
        "version" : "2.0"
    },
    "scene" : 0,
    "scenes" : [
        {
            "name" : "Scene",
            "nodes" : [
                0
            ]
        }
    ],
    "nodes" : [
        {
            "mesh" : 0,
            "name" : "Cube.001",
            "scale" : [
                5.30665922164917,
                5.30665922164917,
                5.30665922164917
            ],
            "translation" : [
                -41.969566345214844,
                4.139525413513184,
                -45.10441589355469
            ]
        }
    ],
    "meshes" : [
        {
            "name" : "Cube.001",
            "primitives" : [
                {
                    "attributes" : {
                        "POSITION" : 0,
                        "TEXCOORD_0" : 1,
                        "NORMAL" : 2
                    },
                    "indices" : 3
                }
            ]
        }
    ],
    "accessors" : [
        {
            "bufferView" : 0,
            "componentType" : 5126,
            "count" : 698,
            "max" : [
                4.143954277038574,
                3.5520853996276855,
                0.6261774301528931
            ],
            "min" : [
                2.143954277038574,
                -0.9833817481994629,
                -1.5086910724639893
            ],
            "type" : "VEC3"
        },
        {
            "bufferView" : 1,
            "componentType" : 5126,
            "count" : 698,
            "type" : "VEC2"
        },
        {
            "bufferView" : 2,
            "componentType" : 5126,
            "count" : 698,
            "type" : "VEC3"
        },
        {
            "bufferView" : 3,
            "componentType" : 5123,
            "count" : 1338,
            "type" : "SCALAR"
        }
    ],
    "bufferViews" : [
        {
            "buffer" : 0,
            "byteLength" : 8376,
            "byteOffset" : 0,
            "target" : 34962
        },
        {
            "buffer" : 0,
            "byteLength" : 5584,
            "byteOffset" : 8376,
            "target" : 34962
        },
        {
            "buffer" : 0,
            "byteLength" : 8376,
            "byteOffset" : 13960,
            "target" : 34962
        },
        {
            "buffer" : 0,
            "byteLength" : 2676,
            "byteOffset" : 22336,
            "target" : 34963
        }
    ],
    "buffers" : [
        {
            "byteLength" : 25012,
            "uri" : "scene.bin"
        }
    ]
}
