{
	"asset":{
		"generator":"Khronos glTF Blender I/O v3.5.30",
		"version":"2.0"
	},
	"scene":0,
	"scenes":[
		{
			"name":"Scene",
			"nodes":[
				0
			]
		}
	],
	"nodes":[
		{
			"mesh":0,
			"name":"Sphere",
			"rotation":[
				0.23404699563980103,
				0.16859790682792664,
				0.23050978779792786,
				0.9293341636657715
			],
			"scale":[
				0.66185462474823,
				0.6618545651435852,
				0.6618545651435852
			],
			"translation":[
				-26.43362808227539,
				-201.34165954589844,
				-0.07647183537483215
			]
		}
	],
	"animations":[
		{
			"channels":[
				{
					"sampler":0,
					"target":{
						"node":0,
						"path":"translation"
					}
				},
				{
					"sampler":1,
					"target":{
						"node":0,
						"path":"rotation"
					}
				},
				{
					"sampler":2,
					"target":{
						"node":0,
						"path":"scale"
					}
				}
			],
			"name":"Sphere",
			"samplers":[
				{
					"input":4,
					"interpolation":"LINEAR",
					"output":5
				},
				{
					"input":4,
					"interpolation":"LINEAR",
					"output":6
				},
				{
					"input":4,
					"interpolation":"LINEAR",
					"output":7
				}
			]
		}
	],
	"materials":[
		{
			"doubleSided":true,
			"name":"Material.001",
			"pbrMetallicRoughness":{
				"baseColorTexture":{
					"index":0
				},
				"metallicFactor":0
			}
		}
	],
	"meshes":[
		{
			"name":"Sphere",
			"primitives":[
				{
					"attributes":{
						"POSITION":0,
						"TEXCOORD_0":1,
						"NORMAL":2
					},
					"indices":3,
					"material":0
				}
			]
		}
	],
	"textures":[
		{
			"sampler":0,
			"source":0
		}
	],
	"images":[
		{
			"mimeType":"image/png",
			"name":"ImphenziaPalette01-256-Gradient",
			"uri":"ImphenziaPalette01-256-Gradient.png"
		}
	],
	"accessors":[
		{
			"bufferView":0,
			"componentType":5126,
			"count":1170,
			"max":[
				205.31170654296875,
				237.15464782714844,
				-75.89369201660156
			],
			"min":[
				128.79698181152344,
				188.88235473632812,
				-191.32058715820312
			],
			"type":"VEC3"
		},
		{
			"bufferView":1,
			"componentType":5126,
			"count":1170,
			"type":"VEC2"
		},
		{
			"bufferView":2,
			"componentType":5126,
			"count":1170,
			"type":"VEC3"
		},
		{
			"bufferView":3,
			"componentType":5123,
			"count":3396,
			"type":"SCALAR"
		},
		{
			"bufferView":4,
			"componentType":5126,
			"count":101,
			"max":[
				4.166666666666667
			],
			"min":[
				0
			],
			"type":"SCALAR"
		},
		{
			"bufferView":5,
			"componentType":5126,
			"count":101,
			"type":"VEC3"
		},
		{
			"bufferView":6,
			"componentType":5126,
			"count":101,
			"type":"VEC4"
		},
		{
			"bufferView":7,
			"componentType":5126,
			"count":101,
			"type":"VEC3"
		}
	],
	"bufferViews":[
		{
			"buffer":0,
			"byteLength":14040,
			"byteOffset":0,
			"target":34962
		},
		{
			"buffer":0,
			"byteLength":9360,
			"byteOffset":14040,
			"target":34962
		},
		{
			"buffer":0,
			"byteLength":14040,
			"byteOffset":23400,
			"target":34962
		},
		{
			"buffer":0,
			"byteLength":6792,
			"byteOffset":37440,
			"target":34963
		},
		{
			"buffer":0,
			"byteLength":404,
			"byteOffset":44232
		},
		{
			"buffer":0,
			"byteLength":1212,
			"byteOffset":44636
		},
		{
			"buffer":0,
			"byteLength":1616,
			"byteOffset":45848
		},
		{
			"buffer":0,
			"byteLength":1212,
			"byteOffset":47464
		}
	],
	"samplers":[
		{
			"magFilter":9728,
			"minFilter":9984
		}
	],
	"buffers":[
		{
			"byteLength":48676,
			"uri":"base.bin"
		}
	]
}
