{
    "asset" : {
        "generator" : "Khronos glTF Blender I/O v3.4.50",
        "version" : "2.0"
    },
    "scene" : 0,
    "scenes" : [
        {
            "name" : "Scene",
            "nodes" : [
                0
            ]
        }
    ],
    "nodes" : [
        {
            "mesh" : 0,
            "name" : "Cube.006",
            "scale" : [
                5.30665922164917,
                5.30665922164917,
                5.30665922164917
            ],
            "translation" : [
                -41.969566345214844,
                4.139525413513184,
                -45.10441589355469
            ]
        }
    ],
    "meshes" : [
        {
            "name" : "Cube.006",
            "primitives" : [
                {
                    "attributes" : {
                        "POSITION" : 0,
                        "TEXCOORD_0" : 1,
                        "NORMAL" : 2
                    },
                    "indices" : 3
                }
            ]
        }
    ],
    "accessors" : [
        {
            "bufferView" : 0,
            "componentType" : 5126,
            "count" : 1002,
            "max" : [
                1.9224457740783691,
                1.777177333831787,
                3.0554141998291016
            ],
            "min" : [
                -1.3148469924926758,
                -0.9895309805870056,
                -1.3860772848129272
            ],
            "type" : "VEC3"
        },
        {
            "bufferView" : 1,
            "componentType" : 5126,
            "count" : 1002,
            "type" : "VEC2"
        },
        {
            "bufferView" : 2,
            "componentType" : 5126,
            "count" : 1002,
            "type" : "VEC3"
        },
        {
            "bufferView" : 3,
            "componentType" : 5123,
            "count" : 1896,
            "type" : "SCALAR"
        }
    ],
    "bufferViews" : [
        {
            "buffer" : 0,
            "byteLength" : 12024,
            "byteOffset" : 0,
            "target" : 34962
        },
        {
            "buffer" : 0,
            "byteLength" : 8016,
            "byteOffset" : 12024,
            "target" : 34962
        },
        {
            "buffer" : 0,
            "byteLength" : 12024,
            "byteOffset" : 20040,
            "target" : 34962
        },
        {
            "buffer" : 0,
            "byteLength" : 3792,
            "byteOffset" : 32064,
            "target" : 34963
        }
    ],
    "buffers" : [
        {
            "byteLength" : 35856,
            "uri" : "scene.bin"
        }
    ]
}
