{
	"asset":{
		"generator":"Khronos glTF Blender I/O v3.5.30",
		"version":"2.0"
	},
	"scene":0,
	"scenes":[
		{
			"name":"Scene",
			"nodes":[
				0
			]
		}
	],
	"nodes":[
		{
			"mesh":0,
			"name":"Cube",
			"rotation":[
				0,
				-0.0016567432321608067,
				0,
				1
			],
			"translation":[
				-6.032812118530273,
				0.0659332275390625,
				-17.57733154296875
			]
		}
	],
	"meshes":[
		{
			"name":"Cube",
			"primitives":[
				{
					"attributes":{
						"POSITION":0,
						"TEXCOORD_0":1,
						"NORMAL":2
					},
					"indices":3
				}
			]
		}
	],
	"accessors":[
		{
			"bufferView":0,
			"componentType":5126,
			"count":2880,
			"max":[
				12.610634803771973,
				13.481659889221191,
				7.101822853088379
			],
			"min":[
				-7.093050003051758,
				-1.9398579597473145,
				-2.2342607975006104
			],
			"type":"VEC3"
		},
		{
			"bufferView":1,
			"componentType":5126,
			"count":2880,
			"type":"VEC2"
		},
		{
			"bufferView":2,
			"componentType":5126,
			"count":2880,
			"type":"VEC3"
		},
		{
			"bufferView":3,
			"componentType":5123,
			"count":9669,
			"type":"SCALAR"
		}
	],
	"bufferViews":[
		{
			"buffer":0,
			"byteLength":34560,
			"byteOffset":0,
			"target":34962
		},
		{
			"buffer":0,
			"byteLength":23040,
			"byteOffset":34560,
			"target":34962
		},
		{
			"buffer":0,
			"byteLength":34560,
			"byteOffset":57600,
			"target":34962
		},
		{
			"buffer":0,
			"byteLength":19338,
			"byteOffset":92160,
			"target":34963
		}
	],
	"buffers":[
		{
			"byteLength":111500,
			"uri":"base.bin"
		}
	]
}
