{
	"asset":{
		"generator":"Khronos glTF Blender I/O v3.5.30",
		"version":"2.0"
	},
	"scene":0,
	"scenes":[
		{
			"name":"Scene",
			"nodes":[
				0
			]
		}
	],
	"nodes":[
		{
			"mesh":0,
			"name":"Cube.001",
			"scale":[
				5.30665922164917,
				5.30665922164917,
				5.30665922164917
			],
			"translation":[
				-40.67591094970703,
				4.139525413513184,
				-45.20942687988281
			]
		}
	],
	"animations":[
		{
			"channels":[
				{
					"sampler":0,
					"target":{
						"node":0,
						"path":"translation"
					}
				},
				{
					"sampler":1,
					"target":{
						"node":0,
						"path":"rotation"
					}
				},
				{
					"sampler":2,
					"target":{
						"node":0,
						"path":"scale"
					}
				}
			],
			"name":"Cube.001",
			"samplers":[
				{
					"input":4,
					"interpolation":"LINEAR",
					"output":5
				},
				{
					"input":4,
					"interpolation":"LINEAR",
					"output":6
				},
				{
					"input":4,
					"interpolation":"LINEAR",
					"output":7
				}
			]
		}
	],
	"meshes":[
		{
			"name":"Cube.001",
			"primitives":[
				{
					"attributes":{
						"POSITION":0,
						"TEXCOORD_0":1,
						"NORMAL":2
					},
					"indices":3
				}
			]
		}
	],
	"accessors":[
		{
			"bufferView":0,
			"componentType":5126,
			"count":814,
			"max":[
				4.143954277038574,
				3.5520853996276855,
				6.063099384307861
			],
			"min":[
				0.5808016061782837,
				-2.836193084716797,
				-1.5086910724639893
			],
			"type":"VEC3"
		},
		{
			"bufferView":1,
			"componentType":5126,
			"count":814,
			"type":"VEC2"
		},
		{
			"bufferView":2,
			"componentType":5126,
			"count":814,
			"type":"VEC3"
		},
		{
			"bufferView":3,
			"componentType":5123,
			"count":1758,
			"type":"SCALAR"
		},
		{
			"bufferView":4,
			"componentType":5126,
			"count":331,
			"max":[
				13.75
			],
			"min":[
				0
			],
			"type":"SCALAR"
		},
		{
			"bufferView":5,
			"componentType":5126,
			"count":331,
			"type":"VEC3"
		},
		{
			"bufferView":6,
			"componentType":5126,
			"count":331,
			"type":"VEC4"
		},
		{
			"bufferView":7,
			"componentType":5126,
			"count":331,
			"type":"VEC3"
		}
	],
	"bufferViews":[
		{
			"buffer":0,
			"byteLength":9768,
			"byteOffset":0,
			"target":34962
		},
		{
			"buffer":0,
			"byteLength":6512,
			"byteOffset":9768,
			"target":34962
		},
		{
			"buffer":0,
			"byteLength":9768,
			"byteOffset":16280,
			"target":34962
		},
		{
			"buffer":0,
			"byteLength":3516,
			"byteOffset":26048,
			"target":34963
		},
		{
			"buffer":0,
			"byteLength":1324,
			"byteOffset":29564
		},
		{
			"buffer":0,
			"byteLength":3972,
			"byteOffset":30888
		},
		{
			"buffer":0,
			"byteLength":5296,
			"byteOffset":34860
		},
		{
			"buffer":0,
			"byteLength":3972,
			"byteOffset":40156
		}
	],
	"buffers":[
		{
			"byteLength":44128,
			"uri":"scene.bin"
		}
	]
}
