{
	"asset":{
		"generator":"Khronos glTF Blender I/O v3.5.30",
		"version":"2.0"
	},
	"scene":0,
	"scenes":[
		{
			"name":"Scene",
			"nodes":[
				0
			]
		}
	],
	"nodes":[
		{
			"mesh":0,
			"name":"robot1",
			"rotation":[
				-0.10611090809106827,
				0.9666703939437866,
				-0.02542354166507721,
				0.23160848021507263
			],
			"scale":[
				2.994344472885132,
				2.9943442344665527,
				2.994345188140869
			],
			"translation":[
				-55.2569580078125,
				-4.363327980041504,
				-16.7103214263916
			]
		}
	],
	"animations":[
		{
			"channels":[
				{
					"sampler":0,
					"target":{
						"node":0,
						"path":"translation"
					}
				},
				{
					"sampler":1,
					"target":{
						"node":0,
						"path":"rotation"
					}
				},
				{
					"sampler":2,
					"target":{
						"node":0,
						"path":"scale"
					}
				}
			],
			"name":"robot1",
			"samplers":[
				{
					"input":4,
					"interpolation":"LINEAR",
					"output":5
				},
				{
					"input":4,
					"interpolation":"LINEAR",
					"output":6
				},
				{
					"input":4,
					"interpolation":"LINEAR",
					"output":7
				}
			]
		}
	],
	"meshes":[
		{
			"name":"Cylinder.003",
			"primitives":[
				{
					"attributes":{
						"POSITION":0,
						"TEXCOORD_0":1,
						"NORMAL":2
					},
					"indices":3
				}
			]
		}
	],
	"accessors":[
		{
			"bufferView":0,
			"componentType":5126,
			"count":3980,
			"max":[
				1.7064129114151,
				1.9254708290100098,
				1.363639235496521
			],
			"min":[
				-1.1311075687408447,
				-1.9793154001235962,
				-1.363639235496521
			],
			"type":"VEC3"
		},
		{
			"bufferView":1,
			"componentType":5126,
			"count":3980,
			"type":"VEC2"
		},
		{
			"bufferView":2,
			"componentType":5126,
			"count":3980,
			"type":"VEC3"
		},
		{
			"bufferView":3,
			"componentType":5123,
			"count":9810,
			"type":"SCALAR"
		},
		{
			"bufferView":4,
			"componentType":5126,
			"count":331,
			"max":[
				13.75
			],
			"min":[
				0
			],
			"type":"SCALAR"
		},
		{
			"bufferView":5,
			"componentType":5126,
			"count":331,
			"type":"VEC3"
		},
		{
			"bufferView":6,
			"componentType":5126,
			"count":331,
			"type":"VEC4"
		},
		{
			"bufferView":7,
			"componentType":5126,
			"count":331,
			"type":"VEC3"
		}
	],
	"bufferViews":[
		{
			"buffer":0,
			"byteLength":47760,
			"byteOffset":0,
			"target":34962
		},
		{
			"buffer":0,
			"byteLength":31840,
			"byteOffset":47760,
			"target":34962
		},
		{
			"buffer":0,
			"byteLength":47760,
			"byteOffset":79600,
			"target":34962
		},
		{
			"buffer":0,
			"byteLength":19620,
			"byteOffset":127360,
			"target":34963
		},
		{
			"buffer":0,
			"byteLength":1324,
			"byteOffset":146980
		},
		{
			"buffer":0,
			"byteLength":3972,
			"byteOffset":148304
		},
		{
			"buffer":0,
			"byteLength":5296,
			"byteOffset":152276
		},
		{
			"buffer":0,
			"byteLength":3972,
			"byteOffset":157572
		}
	],
	"buffers":[
		{
			"byteLength":161544,
			"uri":"scene.bin"
		}
	]
}
