{
    "asset" : {
        "generator" : "Khronos glTF Blender I/O v3.4.50",
        "version" : "2.0"
    },
    "scene" : 0,
    "scenes" : [
        {
            "name" : "Scene",
            "nodes" : [
                0
            ]
        }
    ],
    "nodes" : [
        {
            "mesh" : 0,
            "name" : "Cube",
            "rotation" : [
                0,
                -0.0016567432321608067,
                0,
                1
            ],
            "translation" : [
                -6.032812118530273,
                0.0659332275390625,
                -17.57733154296875
            ]
        }
    ],
    "meshes" : [
        {
            "name" : "Cube",
            "primitives" : [
                {
                    "attributes" : {
                        "POSITION" : 0,
                        "TEXCOORD_0" : 1,
                        "NORMAL" : 2
                    },
                    "indices" : 3
                }
            ]
        }
    ],
    "accessors" : [
        {
            "bufferView" : 0,
            "componentType" : 5126,
            "count" : 11797,
            "max" : [
                12.66048812866211,
                13.481659889221191,
                7.101822853088379
            ],
            "min" : [
                -7.093050003051758,
                -0.9399590492248535,
                -2.2342607975006104
            ],
            "type" : "VEC3"
        },
        {
            "bufferView" : 1,
            "componentType" : 5126,
            "count" : 11797,
            "type" : "VEC2"
        },
        {
            "bufferView" : 2,
            "componentType" : 5126,
            "count" : 11797,
            "type" : "VEC3"
        },
        {
            "bufferView" : 3,
            "componentType" : 5123,
            "count" : 28215,
            "type" : "SCALAR"
        }
    ],
    "bufferViews" : [
        {
            "buffer" : 0,
            "byteLength" : 141564,
            "byteOffset" : 0,
            "target" : 34962
        },
        {
            "buffer" : 0,
            "byteLength" : 94376,
            "byteOffset" : 141564,
            "target" : 34962
        },
        {
            "buffer" : 0,
            "byteLength" : 141564,
            "byteOffset" : 235940,
            "target" : 34962
        },
        {
            "buffer" : 0,
            "byteLength" : 56430,
            "byteOffset" : 377504,
            "target" : 34963
        }
    ],
    "buffers" : [
        {
            "byteLength" : 433936,
            "uri" : "scene.bin"
        }
    ]
}
