{
    "asset" : {
        "generator" : "Khronos glTF Blender I/O v3.4.50",
        "version" : "2.0"
    },
    "scene" : 0,
    "scenes" : [
        {
            "name" : "Scene",
            "nodes" : [
                0
            ]
        }
    ],
    "nodes" : [
        {
            "mesh" : 0,
            "name" : "Cube.003",
            "scale" : [
                5.30665922164917,
                5.30665922164917,
                5.30665922164917
            ],
            "translation" : [
                -41.969566345214844,
                4.139525413513184,
                -45.10441589355469
            ]
        }
    ],
    "meshes" : [
        {
            "name" : "Cube.003",
            "primitives" : [
                {
                    "attributes" : {
                        "POSITION" : 0,
                        "TEXCOORD_0" : 1,
                        "NORMAL" : 2
                    },
                    "indices" : 3
                }
            ]
        }
    ],
    "accessors" : [
        {
            "bufferView" : 0,
            "componentType" : 5126,
            "count" : 1748,
            "max" : [
                3.7693588733673096,
                3.5520853996276855,
                -0.7787929177284241
            ],
            "min" : [
                3.406930923461914,
                1.0188071727752686,
                -1.1194084882736206
            ],
            "type" : "VEC3"
        },
        {
            "bufferView" : 1,
            "componentType" : 5126,
            "count" : 1748,
            "type" : "VEC2"
        },
        {
            "bufferView" : 2,
            "componentType" : 5126,
            "count" : 1748,
            "type" : "VEC3"
        },
        {
            "bufferView" : 3,
            "componentType" : 5123,
            "count" : 2766,
            "type" : "SCALAR"
        }
    ],
    "bufferViews" : [
        {
            "buffer" : 0,
            "byteLength" : 20976,
            "byteOffset" : 0,
            "target" : 34962
        },
        {
            "buffer" : 0,
            "byteLength" : 13984,
            "byteOffset" : 20976,
            "target" : 34962
        },
        {
            "buffer" : 0,
            "byteLength" : 20976,
            "byteOffset" : 34960,
            "target" : 34962
        },
        {
            "buffer" : 0,
            "byteLength" : 5532,
            "byteOffset" : 55936,
            "target" : 34963
        }
    ],
    "buffers" : [
        {
            "byteLength" : 61468,
            "uri" : "scene.bin"
        }
    ]
}
