{
    "asset" : {
        "generator" : "Khronos glTF Blender I/O v3.4.50",
        "version" : "2.0"
    },
    "scene" : 0,
    "scenes" : [
        {
            "name" : "Scene",
            "nodes" : [
                0
            ]
        }
    ],
    "nodes" : [
        {
            "mesh" : 0,
            "name" : "Cube.002",
            "scale" : [
                5.30665922164917,
                5.30665922164917,
                5.30665922164917
            ],
            "translation" : [
                -41.969566345214844,
                4.139525413513184,
                -45.10441589355469
            ]
        }
    ],
    "meshes" : [
        {
            "name" : "Cube.002",
            "primitives" : [
                {
                    "attributes" : {
                        "POSITION" : 0,
                        "TEXCOORD_0" : 1,
                        "NORMAL" : 2
                    },
                    "indices" : 3
                }
            ]
        }
    ],
    "accessors" : [
        {
            "bufferView" : 0,
            "componentType" : 5126,
            "count" : 4952,
            "max" : [
                3.7720649242401123,
                1.0102616548538208,
                0.8817893266677856
            ],
            "min" : [
                2.9923269748687744,
                -0.8079813718795776,
                0.5039274096488953
            ],
            "type" : "VEC3"
        },
        {
            "bufferView" : 1,
            "componentType" : 5126,
            "count" : 4952,
            "type" : "VEC2"
        },
        {
            "bufferView" : 2,
            "componentType" : 5126,
            "count" : 4952,
            "type" : "VEC3"
        },
        {
            "bufferView" : 3,
            "componentType" : 5123,
            "count" : 7668,
            "type" : "SCALAR"
        }
    ],
    "bufferViews" : [
        {
            "buffer" : 0,
            "byteLength" : 59424,
            "byteOffset" : 0,
            "target" : 34962
        },
        {
            "buffer" : 0,
            "byteLength" : 39616,
            "byteOffset" : 59424,
            "target" : 34962
        },
        {
            "buffer" : 0,
            "byteLength" : 59424,
            "byteOffset" : 99040,
            "target" : 34962
        },
        {
            "buffer" : 0,
            "byteLength" : 15336,
            "byteOffset" : 158464,
            "target" : 34963
        }
    ],
    "buffers" : [
        {
            "byteLength" : 173800,
            "uri" : "scene.bin"
        }
    ]
}
