{
    "asset" : {
        "generator" : "Khronos glTF Blender I/O v3.4.50",
        "version" : "2.0"
    },
    "extensionsUsed" : [
        "KHR_materials_specular",
        "KHR_materials_ior"
    ],
    "scene" : 0,
    "scenes" : [
        {
            "name" : "Scene",
            "nodes" : [
                0
            ]
        }
    ],
    "nodes" : [
        {
            "mesh" : 0,
            "name" : "Circle.017",
            "rotation" : [
                0,
                0.7071065902709961,
                0,
                0.7071069478988647
            ],
            "scale" : [
                0.014114323072135448,
                0.014114323072135448,
                0.014114323072135448
            ],
            "translation" : [
                0.12106536328792572,
                0.0914762020111084,
                0.05424569547176361
            ]
        }
    ],
    "materials" : [
        {
            "doubleSided" : true,
            "extensions" : {
                "KHR_materials_specular" : {
                    "specularColorFactor" : [
                        0.538944893098873,
                        0.538944893098873,
                        0.538944893098873
                    ]
                },
                "KHR_materials_ior" : {
                    "ior" : 1.4500000476837158
                }
            },
            "name" : "pecas pretas",
            "pbrMetallicRoughness" : {
                "metallicFactor" : 0,
                "roughnessFactor" : 0.22272726893424988
            }
        }
    ],
    "meshes" : [
        {
            "name" : "Mesh",
            "primitives" : [
                {
                    "attributes" : {
                        "POSITION" : 0,
                        "TEXCOORD_0" : 1,
                        "NORMAL" : 2
                    },
                    "indices" : 3,
                    "material" : 0
                }
            ]
        }
    ],
    "accessors" : [
        {
            "bufferView" : 0,
            "componentType" : 5126,
            "count" : 42658,
            "max" : [
                1.2728347778320312,
                4.983012676239014,
                1.2728346586227417
            ],
            "min" : [
                -1.272834300994873,
                -2.090710163116455,
                -1.2728346586227417
            ],
            "type" : "VEC3"
        },
        {
            "bufferView" : 1,
            "componentType" : 5126,
            "count" : 42658,
            "type" : "VEC2"
        },
        {
            "bufferView" : 2,
            "componentType" : 5126,
            "count" : 42658,
            "type" : "VEC3"
        },
        {
            "bufferView" : 3,
            "componentType" : 5123,
            "count" : 255936,
            "type" : "SCALAR"
        }
    ],
    "bufferViews" : [
        {
            "buffer" : 0,
            "byteLength" : 511896,
            "byteOffset" : 0,
            "target" : 34962
        },
        {
            "buffer" : 0,
            "byteLength" : 341264,
            "byteOffset" : 511896,
            "target" : 34962
        },
        {
            "buffer" : 0,
            "byteLength" : 511896,
            "byteOffset" : 853160,
            "target" : 34962
        },
        {
            "buffer" : 0,
            "byteLength" : 511872,
            "byteOffset" : 1365056,
            "target" : 34963
        }
    ],
    "buffers" : [
        {
            "byteLength" : 1876928,
            "uri" : "scene.bin"
        }
    ]
}
