{
    "asset" : {
        "generator" : "Khronos glTF Blender I/O v3.4.50",
        "version" : "2.0"
    },
    "scene" : 0,
    "scenes" : [
        {
            "name" : "Scene",
            "nodes" : [
                0
            ]
        }
    ],
    "nodes" : [
        {
            "mesh" : 0,
            "name" : "Cylinder",
            "rotation" : [
                0,
                0.9546357989311218,
                0,
                0.29777589440345764
            ],
            "scale" : [
                1.0134201049804688,
                1.817739486694336,
                1.0134201049804688
            ],
            "translation" : [
                0,
                9.580209732055664,
                0
            ]
        }
    ],
    "meshes" : [
        {
            "name" : "Cylinder",
            "primitives" : [
                {
                    "attributes" : {
                        "POSITION" : 0,
                        "TEXCOORD_0" : 1,
                        "NORMAL" : 2
                    },
                    "indices" : 3
                }
            ]
        }
    ],
    "accessors" : [
        {
            "bufferView" : 0,
            "componentType" : 5126,
            "count" : 8840,
            "max" : [
                3.2947182655334473,
                3.244655132293701,
                2.058372974395752
            ],
            "min" : [
                -3.2947182655334473,
                -5.222454071044922,
                -2.9290990829467773
            ],
            "type" : "VEC3"
        },
        {
            "bufferView" : 1,
            "componentType" : 5126,
            "count" : 8840,
            "type" : "VEC2"
        },
        {
            "bufferView" : 2,
            "componentType" : 5126,
            "count" : 8840,
            "type" : "VEC3"
        },
        {
            "bufferView" : 3,
            "componentType" : 5123,
            "count" : 14112,
            "type" : "SCALAR"
        }
    ],
    "bufferViews" : [
        {
            "buffer" : 0,
            "byteLength" : 106080,
            "byteOffset" : 0,
            "target" : 34962
        },
        {
            "buffer" : 0,
            "byteLength" : 70720,
            "byteOffset" : 106080,
            "target" : 34962
        },
        {
            "buffer" : 0,
            "byteLength" : 106080,
            "byteOffset" : 176800,
            "target" : 34962
        },
        {
            "buffer" : 0,
            "byteLength" : 28224,
            "byteOffset" : 282880,
            "target" : 34963
        }
    ],
    "buffers" : [
        {
            "byteLength" : 311104,
            "uri" : "scene.bin"
        }
    ]
}
