{
    "asset" : {
        "generator" : "Khronos glTF Blender I/O v3.4.50",
        "version" : "2.0"
    },
    "scene" : 0,
    "scenes" : [
        {
            "name" : "Scene",
            "nodes" : [
                0
            ]
        }
    ],
    "nodes" : [
        {
            "mesh" : 0,
            "name" : "Cylinder",
            "scale" : [
                0.5748960971832275,
                0.5748960971832275,
                0.5748960971832275
            ],
            "translation" : [
                -22.469194412231445,
                22.989233016967773,
                -50.54144287109375
            ]
        }
    ],
    "meshes" : [
        {
            "name" : "Cylinder",
            "primitives" : [
                {
                    "attributes" : {
                        "POSITION" : 0,
                        "TEXCOORD_0" : 1,
                        "NORMAL" : 2
                    },
                    "indices" : 3
                }
            ]
        }
    ],
    "accessors" : [
        {
            "bufferView" : 0,
            "componentType" : 5126,
            "count" : 192,
            "max" : [
                1,
                1,
                1
            ],
            "min" : [
                -1,
                -1,
                -1
            ],
            "type" : "VEC3"
        },
        {
            "bufferView" : 1,
            "componentType" : 5126,
            "count" : 192,
            "type" : "VEC2"
        },
        {
            "bufferView" : 2,
            "componentType" : 5126,
            "count" : 192,
            "type" : "VEC3"
        },
        {
            "bufferView" : 3,
            "componentType" : 5123,
            "count" : 372,
            "type" : "SCALAR"
        }
    ],
    "bufferViews" : [
        {
            "buffer" : 0,
            "byteLength" : 2304,
            "byteOffset" : 0,
            "target" : 34962
        },
        {
            "buffer" : 0,
            "byteLength" : 1536,
            "byteOffset" : 2304,
            "target" : 34962
        },
        {
            "buffer" : 0,
            "byteLength" : 2304,
            "byteOffset" : 3840,
            "target" : 34962
        },
        {
            "buffer" : 0,
            "byteLength" : 744,
            "byteOffset" : 6144,
            "target" : 34963
        }
    ],
    "buffers" : [
        {
            "byteLength" : 6888,
            "uri" : "scene.bin"
        }
    ]
}
