{
	"asset":{
		"generator":"Khronos glTF Blender I/O v3.5.30",
		"version":"2.0"
	},
	"scene":0,
	"scenes":[
		{
			"name":"Scene",
			"nodes":[
				0
			]
		}
	],
	"nodes":[
		{
			"mesh":0,
			"name":"Cube.006",
			"scale":[
				5.30665922164917,
				5.30665922164917,
				5.30665922164917
			],
			"translation":[
				-41.969566345214844,
				4.139525413513184,
				-45.10441589355469
			]
		}
	],
	"meshes":[
		{
			"name":"Cube.006",
			"primitives":[
				{
					"attributes":{
						"POSITION":0,
						"TEXCOORD_0":1,
						"NORMAL":2
					},
					"indices":3
				}
			]
		}
	],
	"accessors":[
		{
			"bufferView":0,
			"componentType":5126,
			"count":716,
			"max":[
				1.9224457740783691,
				1.777177333831787,
				3.0554141998291016
			],
			"min":[
				-1.3148469924926758,
				-0.9895309805870056,
				-1.3860772848129272
			],
			"type":"VEC3"
		},
		{
			"bufferView":1,
			"componentType":5126,
			"count":716,
			"type":"VEC2"
		},
		{
			"bufferView":2,
			"componentType":5126,
			"count":716,
			"type":"VEC3"
		},
		{
			"bufferView":3,
			"componentType":5123,
			"count":1890,
			"type":"SCALAR"
		}
	],
	"bufferViews":[
		{
			"buffer":0,
			"byteLength":8592,
			"byteOffset":0,
			"target":34962
		},
		{
			"buffer":0,
			"byteLength":5728,
			"byteOffset":8592,
			"target":34962
		},
		{
			"buffer":0,
			"byteLength":8592,
			"byteOffset":14320,
			"target":34962
		},
		{
			"buffer":0,
			"byteLength":3780,
			"byteOffset":22912,
			"target":34963
		}
	],
	"buffers":[
		{
			"byteLength":26692,
			"uri":"scene.bin"
		}
	]
}
