{
	"asset":{
		"generator":"Khronos glTF Blender I/O v3.5.30",
		"version":"2.0"
	},
	"scene":0,
	"scenes":[
		{
			"name":"Scene",
			"nodes":[
				0,
				1
			]
		}
	],
	"nodes":[
		{
			"mesh":0,
			"name":"Text",
			"rotation":[
				0.7071068286895752,
				0,
				0,
				0.7071068286895752
			],
			"scale":[
				1.471752643585205,
				1.471752643585205,
				1.471752643585205
			],
			"translation":[
				-134.5108184814453,
				45.84905242919922,
				-84.21991729736328
			]
		},
		{
			"mesh":1,
			"name":"Text.001",
			"rotation":[
				0.7071068286895752,
				0,
				0,
				0.7071068286895752
			],
			"scale":[
				0.7352299690246582,
				0.7352299690246582,
				0.7352299690246582
			],
			"translation":[
				-38.0577507019043,
				37.74189758300781,
				-78.1166000366211
			]
		}
	],
	"animations":[
		{
			"channels":[
				{
					"sampler":0,
					"target":{
						"node":0,
						"path":"translation"
					}
				},
				{
					"sampler":1,
					"target":{
						"node":0,
						"path":"rotation"
					}
				},
				{
					"sampler":2,
					"target":{
						"node":0,
						"path":"scale"
					}
				}
			],
			"name":"Text",
			"samplers":[
				{
					"input":8,
					"interpolation":"LINEAR",
					"output":9
				},
				{
					"input":8,
					"interpolation":"LINEAR",
					"output":10
				},
				{
					"input":8,
					"interpolation":"LINEAR",
					"output":11
				}
			]
		},
		{
			"channels":[
				{
					"sampler":0,
					"target":{
						"node":1,
						"path":"rotation"
					}
				}
			],
			"name":"Text.001Action.001",
			"samplers":[
				{
					"input":8,
					"interpolation":"LINEAR",
					"output":12
				}
			]
		}
	],
	"meshes":[
		{
			"name":"Text.002",
			"primitives":[
				{
					"attributes":{
						"POSITION":0,
						"TEXCOORD_0":1,
						"NORMAL":2
					},
					"indices":3
				}
			]
		},
		{
			"name":"Text.003",
			"primitives":[
				{
					"attributes":{
						"POSITION":4,
						"TEXCOORD_0":5,
						"NORMAL":6
					},
					"indices":7
				}
			]
		}
	],
	"accessors":[
		{
			"bufferView":0,
			"componentType":5126,
			"count":16428,
			"max":[
				95.72699737548828,
				0.25999996066093445,
				0.028011567890644073
			],
			"min":[
				-1.0832452774047852,
				-0.25999996066093445,
				-7.324400424957275
			],
			"type":"VEC3"
		},
		{
			"bufferView":1,
			"componentType":5126,
			"count":16428,
			"type":"VEC2"
		},
		{
			"bufferView":2,
			"componentType":5126,
			"count":16428,
			"type":"VEC3"
		},
		{
			"bufferView":3,
			"componentType":5123,
			"count":83748,
			"type":"SCALAR"
		},
		{
			"bufferView":4,
			"componentType":5126,
			"count":442771,
			"max":[
				52.135562896728516,
				0.6600000262260437,
				3.5162084102630615
			],
			"min":[
				-44.13556671142578,
				-0.6600000262260437,
				-3.5161640644073486
			],
			"type":"VEC3"
		},
		{
			"bufferView":5,
			"componentType":5126,
			"count":442771,
			"type":"VEC2"
		},
		{
			"bufferView":6,
			"componentType":5126,
			"count":442771,
			"type":"VEC3"
		},
		{
			"bufferView":7,
			"componentType":5125,
			"count":2446968,
			"type":"SCALAR"
		},
		{
			"bufferView":8,
			"componentType":5126,
			"count":251,
			"max":[
				10.416666666666666
			],
			"min":[
				0
			],
			"type":"SCALAR"
		},
		{
			"bufferView":9,
			"componentType":5126,
			"count":251,
			"type":"VEC3"
		},
		{
			"bufferView":10,
			"componentType":5126,
			"count":251,
			"type":"VEC4"
		},
		{
			"bufferView":11,
			"componentType":5126,
			"count":251,
			"type":"VEC3"
		},
		{
			"bufferView":12,
			"componentType":5126,
			"count":251,
			"type":"VEC4"
		}
	],
	"bufferViews":[
		{
			"buffer":0,
			"byteLength":197136,
			"byteOffset":0,
			"target":34962
		},
		{
			"buffer":0,
			"byteLength":131424,
			"byteOffset":197136,
			"target":34962
		},
		{
			"buffer":0,
			"byteLength":197136,
			"byteOffset":328560,
			"target":34962
		},
		{
			"buffer":0,
			"byteLength":167496,
			"byteOffset":525696,
			"target":34963
		},
		{
			"buffer":0,
			"byteLength":5313252,
			"byteOffset":693192,
			"target":34962
		},
		{
			"buffer":0,
			"byteLength":3542168,
			"byteOffset":6006444,
			"target":34962
		},
		{
			"buffer":0,
			"byteLength":5313252,
			"byteOffset":9548612,
			"target":34962
		},
		{
			"buffer":0,
			"byteLength":9787872,
			"byteOffset":14861864,
			"target":34963
		},
		{
			"buffer":0,
			"byteLength":1004,
			"byteOffset":24649736
		},
		{
			"buffer":0,
			"byteLength":3012,
			"byteOffset":24650740
		},
		{
			"buffer":0,
			"byteLength":4016,
			"byteOffset":24653752
		},
		{
			"buffer":0,
			"byteLength":3012,
			"byteOffset":24657768
		},
		{
			"buffer":0,
			"byteLength":4016,
			"byteOffset":24660780
		}
	],
	"buffers":[
		{
			"byteLength":24664796,
			"uri":"scene.bin"
		}
	]
}
