{
	"asset":{
		"generator":"Khronos glTF Blender I/O v3.5.30",
		"version":"2.0"
	},
	"scene":0,
	"scenes":[
		{
			"name":"Scene",
			"nodes":[
				0
			]
		}
	],
	"nodes":[
		{
			"mesh":0,
			"name":"crystal",
			"translation":[
				-36.720855712890625,
				-9.738739013671875,
				-18.853424072265625
			]
		}
	],
	"animations":[
		{
			"channels":[
				{
					"sampler":0,
					"target":{
						"node":0,
						"path":"translation"
					}
				},
				{
					"sampler":1,
					"target":{
						"node":0,
						"path":"rotation"
					}
				},
				{
					"sampler":2,
					"target":{
						"node":0,
						"path":"scale"
					}
				}
			],
			"name":"crystal",
			"samplers":[
				{
					"input":4,
					"interpolation":"LINEAR",
					"output":5
				},
				{
					"input":4,
					"interpolation":"LINEAR",
					"output":6
				},
				{
					"input":4,
					"interpolation":"LINEAR",
					"output":7
				}
			]
		}
	],
	"materials":[
		{
			"doubleSided":true,
			"name":"Material.001",
			"pbrMetallicRoughness":{
				"baseColorTexture":{
					"index":0
				},
				"metallicFactor":0
			}
		}
	],
	"meshes":[
		{
			"name":"Cylinder.015",
			"primitives":[
				{
					"attributes":{
						"POSITION":0,
						"TEXCOORD_0":1,
						"NORMAL":2
					},
					"indices":3,
					"material":0
				}
			]
		}
	],
	"textures":[
		{
			"sampler":0,
			"source":0
		}
	],
	"images":[
		{
			"mimeType":"image/png",
			"name":"ImphenziaPalette01-256-Gradient",
			"uri":"ImphenziaPalette01-256-Gradient.png"
		}
	],
	"accessors":[
		{
			"bufferView":0,
			"componentType":5126,
			"count":1760,
			"max":[
				33.68988037109375,
				14.532302856445312,
				24.064617156982422
			],
			"min":[
				-6.90643835067749,
				-2.224055767059326,
				1.4246009588241577
			],
			"type":"VEC3"
		},
		{
			"bufferView":1,
			"componentType":5126,
			"count":1760,
			"type":"VEC2"
		},
		{
			"bufferView":2,
			"componentType":5126,
			"count":1760,
			"type":"VEC3"
		},
		{
			"bufferView":3,
			"componentType":5123,
			"count":5604,
			"type":"SCALAR"
		},
		{
			"bufferView":4,
			"componentType":5126,
			"count":331,
			"max":[
				13.75
			],
			"min":[
				0
			],
			"type":"SCALAR"
		},
		{
			"bufferView":5,
			"componentType":5126,
			"count":331,
			"type":"VEC3"
		},
		{
			"bufferView":6,
			"componentType":5126,
			"count":331,
			"type":"VEC4"
		},
		{
			"bufferView":7,
			"componentType":5126,
			"count":331,
			"type":"VEC3"
		}
	],
	"bufferViews":[
		{
			"buffer":0,
			"byteLength":21120,
			"byteOffset":0,
			"target":34962
		},
		{
			"buffer":0,
			"byteLength":14080,
			"byteOffset":21120,
			"target":34962
		},
		{
			"buffer":0,
			"byteLength":21120,
			"byteOffset":35200,
			"target":34962
		},
		{
			"buffer":0,
			"byteLength":11208,
			"byteOffset":56320,
			"target":34963
		},
		{
			"buffer":0,
			"byteLength":1324,
			"byteOffset":67528
		},
		{
			"buffer":0,
			"byteLength":3972,
			"byteOffset":68852
		},
		{
			"buffer":0,
			"byteLength":5296,
			"byteOffset":72824
		},
		{
			"buffer":0,
			"byteLength":3972,
			"byteOffset":78120
		}
	],
	"samplers":[
		{
			"magFilter":9728,
			"minFilter":9984
		}
	],
	"buffers":[
		{
			"byteLength":82092,
			"uri":"scene.bin"
		}
	]
}
