{
	"asset":{
		"generator":"Khronos glTF Blender I/O v3.5.30",
		"version":"2.0"
	},
	"scene":0,
	"scenes":[
		{
			"name":"Scene",
			"nodes":[
				0,
				1
			]
		}
	],
	"nodes":[
		{
			"mesh":0,
			"name":"Cylinder",
			"scale":[
				7.174111366271973,
				7.174111366271973,
				7.174111366271973
			],
			"translation":[
				13.579290390014648,
				-17.351457595825195,
				-0.8179650902748108
			]
		},
		{
			"name":"NurbsPath.004",
			"scale":[
				7.174111366271973,
				7.174111366271973,
				7.174111366271973
			],
			"translation":[
				-17.978073120117188,
				22.9721736907959,
				1.0829311609268188
			]
		}
	],
	"animations":[
		{
			"channels":[
				{
					"sampler":0,
					"target":{
						"node":1,
						"path":"rotation"
					}
				}
			],
			"name":"NurbsPath.004Action",
			"samplers":[
				{
					"input":4,
					"interpolation":"LINEAR",
					"output":5
				}
			]
		}
	],
	"meshes":[
		{
			"name":"Cylinder",
			"primitives":[
				{
					"attributes":{
						"POSITION":0,
						"TEXCOORD_0":1,
						"NORMAL":2
					},
					"indices":3
				}
			]
		}
	],
	"accessors":[
		{
			"bufferView":0,
			"componentType":5126,
			"count":3408,
			"max":[
				2.7442269325256348,
				8.686279296875,
				1.6310464143753052
			],
			"min":[
				-2.506067991256714,
				-1,
				-2.6313626766204834
			],
			"type":"VEC3"
		},
		{
			"bufferView":1,
			"componentType":5126,
			"count":3408,
			"type":"VEC2"
		},
		{
			"bufferView":2,
			"componentType":5126,
			"count":3408,
			"type":"VEC3"
		},
		{
			"bufferView":3,
			"componentType":5123,
			"count":7098,
			"type":"SCALAR"
		},
		{
			"bufferView":4,
			"componentType":5126,
			"count":61,
			"max":[
				2.5
			],
			"min":[
				0
			],
			"type":"SCALAR"
		},
		{
			"bufferView":5,
			"componentType":5126,
			"count":61,
			"type":"VEC4"
		}
	],
	"bufferViews":[
		{
			"buffer":0,
			"byteLength":40896,
			"byteOffset":0,
			"target":34962
		},
		{
			"buffer":0,
			"byteLength":27264,
			"byteOffset":40896,
			"target":34962
		},
		{
			"buffer":0,
			"byteLength":40896,
			"byteOffset":68160,
			"target":34962
		},
		{
			"buffer":0,
			"byteLength":14196,
			"byteOffset":109056,
			"target":34963
		},
		{
			"buffer":0,
			"byteLength":244,
			"byteOffset":123252
		},
		{
			"buffer":0,
			"byteLength":976,
			"byteOffset":123496
		}
	],
	"buffers":[
		{
			"byteLength":124472,
			"uri":"scene.bin"
		}
	]
}
