{
	"asset":{
		"generator":"Khronos glTF Blender I/O v3.5.30",
		"version":"2.0"
	},
	"scene":0,
	"scenes":[
		{
			"name":"Scene",
			"nodes":[
				0
			]
		}
	],
	"nodes":[
		{
			"mesh":0,
			"name":"Cylinder",
			"scale":[
				14.026467323303223,
				14.026467323303223,
				14.02646541595459
			],
			"translation":[
				0.042953528463840485,
				18.6700439453125,
				-0.048741403967142105
			]
		}
	],
	"animations":[
		{
			"channels":[
				{
					"sampler":0,
					"target":{
						"node":0,
						"path":"rotation"
					}
				}
			],
			"name":"CylinderAction.004",
			"samplers":[
				{
					"input":4,
					"interpolation":"LINEAR",
					"output":5
				}
			]
		}
	],
	"meshes":[
		{
			"name":"Cylinder",
			"primitives":[
				{
					"attributes":{
						"POSITION":0,
						"TEXCOORD_0":1,
						"NORMAL":2
					},
					"indices":3
				}
			]
		}
	],
	"accessors":[
		{
			"bufferView":0,
			"componentType":5126,
			"count":2566,
			"max":[
				1.7540256977081299,
				3.590895175933838,
				1.4590498208999634
			],
			"min":[
				-1.5622925758361816,
				-1.2972301244735718,
				-1.4590498208999634
			],
			"type":"VEC3"
		},
		{
			"bufferView":1,
			"componentType":5126,
			"count":2566,
			"type":"VEC2"
		},
		{
			"bufferView":2,
			"componentType":5126,
			"count":2566,
			"type":"VEC3"
		},
		{
			"bufferView":3,
			"componentType":5123,
			"count":4698,
			"type":"SCALAR"
		},
		{
			"bufferView":4,
			"componentType":5126,
			"count":101,
			"max":[
				4.166666666666667
			],
			"min":[
				0
			],
			"type":"SCALAR"
		},
		{
			"bufferView":5,
			"componentType":5126,
			"count":101,
			"type":"VEC4"
		}
	],
	"bufferViews":[
		{
			"buffer":0,
			"byteLength":30792,
			"byteOffset":0,
			"target":34962
		},
		{
			"buffer":0,
			"byteLength":20528,
			"byteOffset":30792,
			"target":34962
		},
		{
			"buffer":0,
			"byteLength":30792,
			"byteOffset":51320,
			"target":34962
		},
		{
			"buffer":0,
			"byteLength":9396,
			"byteOffset":82112,
			"target":34963
		},
		{
			"buffer":0,
			"byteLength":404,
			"byteOffset":91508
		},
		{
			"buffer":0,
			"byteLength":1616,
			"byteOffset":91912
		}
	],
	"buffers":[
		{
			"byteLength":93528,
			"uri":"scene.bin"
		}
	]
}
