{
	"asset":{
		"generator":"Khronos glTF Blender I/O v3.5.30",
		"version":"2.0"
	},
	"scene":0,
	"scenes":[
		{
			"name":"Scene",
			"nodes":[
				0
			]
		}
	],
	"nodes":[
		{
			"mesh":0,
			"name":"robot2",
			"rotation":[
				-0.10611090809106827,
				0.9666703939437866,
				-0.02542354166507721,
				0.23160848021507263
			],
			"scale":[
				2.994344472885132,
				2.9943442344665527,
				2.994345188140869
			],
			"translation":[
				-55.2569580078125,
				-4.363327980041504,
				-16.7103214263916
			]
		}
	],
	"animations":[
		{
			"channels":[
				{
					"sampler":0,
					"target":{
						"node":0,
						"path":"translation"
					}
				},
				{
					"sampler":1,
					"target":{
						"node":0,
						"path":"rotation"
					}
				},
				{
					"sampler":2,
					"target":{
						"node":0,
						"path":"scale"
					}
				}
			],
			"name":"robot2",
			"samplers":[
				{
					"input":4,
					"interpolation":"LINEAR",
					"output":5
				},
				{
					"input":4,
					"interpolation":"LINEAR",
					"output":6
				},
				{
					"input":4,
					"interpolation":"LINEAR",
					"output":7
				}
			]
		}
	],
	"meshes":[
		{
			"name":"Cylinder.013",
			"primitives":[
				{
					"attributes":{
						"POSITION":0,
						"TEXCOORD_0":1,
						"NORMAL":2
					},
					"indices":3
				}
			]
		}
	],
	"accessors":[
		{
			"bufferView":0,
			"componentType":5126,
			"count":1029,
			"max":[
				1.4662784337997437,
				0.9215041995048523,
				1.3636382818222046
			],
			"min":[
				-1.1311075687408447,
				-1.557235598564148,
				-1.3636401891708374
			],
			"type":"VEC3"
		},
		{
			"bufferView":1,
			"componentType":5126,
			"count":1029,
			"type":"VEC2"
		},
		{
			"bufferView":2,
			"componentType":5126,
			"count":1029,
			"type":"VEC3"
		},
		{
			"bufferView":3,
			"componentType":5123,
			"count":2118,
			"type":"SCALAR"
		},
		{
			"bufferView":4,
			"componentType":5126,
			"count":331,
			"max":[
				13.75
			],
			"min":[
				0
			],
			"type":"SCALAR"
		},
		{
			"bufferView":5,
			"componentType":5126,
			"count":331,
			"type":"VEC3"
		},
		{
			"bufferView":6,
			"componentType":5126,
			"count":331,
			"type":"VEC4"
		},
		{
			"bufferView":7,
			"componentType":5126,
			"count":331,
			"type":"VEC3"
		}
	],
	"bufferViews":[
		{
			"buffer":0,
			"byteLength":12348,
			"byteOffset":0,
			"target":34962
		},
		{
			"buffer":0,
			"byteLength":8232,
			"byteOffset":12348,
			"target":34962
		},
		{
			"buffer":0,
			"byteLength":12348,
			"byteOffset":20580,
			"target":34962
		},
		{
			"buffer":0,
			"byteLength":4236,
			"byteOffset":32928,
			"target":34963
		},
		{
			"buffer":0,
			"byteLength":1324,
			"byteOffset":37164
		},
		{
			"buffer":0,
			"byteLength":3972,
			"byteOffset":38488
		},
		{
			"buffer":0,
			"byteLength":5296,
			"byteOffset":42460
		},
		{
			"buffer":0,
			"byteLength":3972,
			"byteOffset":47756
		}
	],
	"buffers":[
		{
			"byteLength":51728,
			"uri":"scene.bin"
		}
	]
}
